<?xml version="1.0" encoding="utf-8"?>
<!-- Generator: Adobe Illustrator 26.3.1, SVG Export Plug-In . SVG Version: 6.00 Build 0)  -->
<svg version="1.1" id="a" xmlns="http://www.w3.org/2000/svg" xmlns:xlink="http://www.w3.org/1999/xlink" x="0px" y="0px"
	 viewBox="0 0 123.5 59.7" style="enable-background:new 0 0 123.5 59.7;" xml:space="preserve">
<style type="text/css">
	.st0{fill:#ABD4D0;}
</style>
<path class="st0" d="M112.9,31.7h-2.2c-44.6,0-14.5,0-59,0c-2.2,0-4,0.4-5.1-2.2l0,0c0.7-2.5,2.5-2.2,5.1-2.2c44.6,0,14.5,0,59,0
	h2.2L94.2,12c0,0-1.8-2.5-1.1-4.3c0.4-1.4,1.4-1.8,2.2-1.1C96,6.9,97.1,8,97.1,8l25.2,21.5L97.4,51c0,0-1.1,1.1-1.8,1.4
	c-0.7,0.4-1.8,0-2.2-1.1c-0.7-1.8,1.1-4.3,1.1-4.3L112.9,31.7z"/>
</svg>
