<?xml version="1.0" encoding="UTF-8"?><svg id="Calque_1" xmlns="http://www.w3.org/2000/svg" viewBox="0 0 11.83 10.46"><defs><style>.cls-1{fill:#E0B487;}</style></defs><path class="cls-1" d="M11.35,3.67c0-.79-.58-1.46-1.66-1.46H4.04c-.23,0-.4,.09-.4,.33,0,.23,.17,.34,.4,.34h1.96v1.58c-1.23,.13-2.71,.51-4.49,1.24-.43-.63-.68-1.35-.68-2.11C.84,1.68,1.7,.67,3.21,.67h2.96c.23,0,.4-.11,.4-.34s-.17-.34-.4-.34H3.14C1.3,0,0,1.27,0,3.41c0,2.66,1.94,4.92,5.35,4.92,.27,0,.48,0,.66-.02v1.72c0,.28,.12,.43,.41,.43h3.36c1.06,0,2.06-.84,2.06-2.25,0-1.28-.61-2.05-1.31-2.64,.66-.6,.8-1.28,.83-1.69v-.2Zm-4.57,1.49c.73-.02,1.33,.07,1.82,.21,.03,0,.06,.02,.08,.03,.14,.04,.27,.1,.4,.15-.55,.22-1.3,.39-2.31,.45v-.84Zm3.8-1.39c0,.36-.14,.73-.36,1.01-.04,.05-.09,.1-.14,.16-.06,.06-.13,.12-.2,.17-.73-.43-1.74-.72-3.09-.69v-1.53h2.53c.84,0,1.27,.34,1.27,.89Zm-5.19,3.81c-1.41,0-2.57-.51-3.37-1.28,1.59-.63,2.9-.96,3.98-1.09v2.37h-.61Zm3.94,2.21h-2.57v-1.91c0-.07,.02-.15,.02-.24v-.88c1.43-.07,2.42-.36,3.1-.73,.72,.56,1.02,1.23,1.12,1.61,.02,.13,.06,.25,.06,.39,0,1.1-.62,1.77-1.73,1.77Z"/></svg>