<?xml version="1.0" encoding="UTF-8"?><svg id="a" xmlns="http://www.w3.org/2000/svg" viewBox="0 0 542.69 499.17"><defs><style>.b{fill:none;stroke:#fff;stroke-linecap:round;stroke-linejoin:round;stroke-width:8px;}</style></defs><path class="b" d="M415.74,173.17c-23.98-40.29-55.28-21.64-55.28-21.64,5.99,17.32-2.66,21.64-2.66,21.64,0,0,11.99,24.64,57.27,2l.67-2Z"/><path class="b" d="M330.16,193.48s-13.82-32.86-40.95-17.61c-11.31,6.35-18.77,17.94-20.53,30.79-2.03,14.88-5.9,25.69,3.31,46.32,7.1,15.89-.89,52.83-47.51,49.28-46.62-3.55-71.48,4-71.48,4,0,0-15.1-186.03,83.47-219.77,98.56-33.74,130.09,48.84,93.68,107Z"/><path class="b" d="M169.44,319.13s17.65-9.23,65.7,1.46c29.97,6.67,54.28-26.97,55.28-52.61,0,0,96.35,109.22,220.89,18.07,0,0,13.32,85.58-129.2,110.89,0,0,54.28,27.64,73.92,24.97s-113.55,58.94-178.48,7.33c0,0,32.63,60.6,41.96,65.27,9.32,4.66-113.88-13.99-128.53-102.23,0,0-16.65,27.31-6.99,56.28,0,0-64.05-68.02-14.54-129.42Z"/><path class="b" d="M121.39,9.23s-48.97,38.45-13.67,119.35h0c25.9,2.81,51.06,20.51,51.06,20.51,23.09-54.61,61.71-72.81,61.71-72.81C194.13,23.33,151.95,12.36,121.39,9.23Z"/><path class="b" d="M111.7,9.99C43.92,.97,3.32,69.7,4.01,138.07c0,0,8.22,22.69,50.49,26.78,1.82,.18,.9-3.54,1.47-5.28,10.18-31.16,24.41-33.97,45.03-30.94,0,0-38.12-69.67,12.72-118.62l-2.01-.02Z"/><path class="b" d="M112.16,238.03s31.97,3.4,36.85,.74l-3.03,45.9s-48.58-.95-63.9-20.59c0,0,22.48-7.4,30.08-26.05Z"/><path class="b" d="M4,148.2s18.48,18.65,50.89,21.76c0,0,2.22,56.39,51.95,67.04,0,0,1.39,10.77-28.42,23.98,0,0-54.27-26.2-74.42-112.77Z"/><path class="b" d="M294.53,205.14s3.04,55.46,89.95,60.46c0,0-3.33,31.63,12.65,41.62,0,0-97.94-7.51-102.6-102.08Z"/><path class="b" d="M258.23,68.61s92.57-13.32,104.23,60.94c0,0,34.67-25.31,56.91-23.98,0,0,7.99-65.6-19.65-97.57,0,0-114.85-27.31-141.49,60.6Z"/><path class="b" d="M406.75,9.67s28.3,29.64,17.32,96.57c0,0,46.47,6.77,56.13,54.72,0,0,33.63,2,50.61-17.65,0,0-27.82-123.65-124.06-133.64Z"/><path class="b" d="M481.67,165.33s30.3,2.04,50.28-15.61c0,0,26.12,55.2-24.49,111.81,0,0-30.3-5.66-40.29-26.64,0,0,17.83-16.95,14.5-69.56Z"/><path class="b" d="M389.43,266.74s-1.31,13.86,2.06,25.84c2.75,9.79,11.81,16.47,21.98,16.82,21.42,.73,66.32-4.48,90.18-44.32,0,0-25.64-3.66-39.63-26.31,0,0-22.98,35.96-74.59,27.97Z"/></svg>