<?xml version="1.0" encoding="UTF-8"?><svg id="a" xmlns="http://www.w3.org/2000/svg" viewBox="0 0 123.54 59.74"><path d="M123.54,29.87c-.8,.77-1.21,1.06-1.92,1.77-8.9,8.91-17.82,17.81-26.75,26.7-.43,.43-.86,.89-1.36,1.23-.59,.39-1.47,.06-1.9-1-.56-1.43,.04-2.51,1.04-3.5,7.38-7.37,14.76-14.74,22.14-22.12,.33-.33,.64-.68,1.16-1.25h-1.85c-36.68,0-73.37,0-110.05,.01-1.87,0-3.41,.18-4.04-1.82v-.08c.64-2,2.17-1.82,4.04-1.82,36.68,.02,73.37,.01,110.05,.01h1.85c-.52-.56-.83-.92-1.16-1.25-7.38-7.38-14.75-14.75-22.14-22.12-.99-.99-1.6-2.07-1.04-3.5,.44-1.06,1.31-1.39,1.9-1,.51,.34,.93,.8,1.36,1.23,8.92,8.9,17.84,17.79,26.75,26.7,.71,.71,1.24,1.02,1.92,1.77Z"/></svg>